<?xml version="1.0" encoding="UTF-8"?>
<svg version="1.1" xmlns="http://www.w3.org/2000/svg" width="864" height="260">
<path d="M0 0 C285.12 0 570.24 0 864 0 C864 85.8 864 171.6 864 260 C578.88 260 293.76 260 0 260 C0 174.2 0 88.4 0 0 Z " fill="#FDFEFE" transform="translate(0,0)"/>
<path d="M0 0 C9.24 0 18.48 0 28 0 C28.68102783 1.98773438 29.36205566 3.97546875 30.0637207 6.0234375 C32.32177638 12.61353555 34.58110384 19.20319708 36.84104633 25.79264832 C38.21031141 29.78522329 39.57915661 33.77794117 40.94702148 37.77099609 C42.26873418 41.62927258 43.59157691 45.48715996 44.91518211 49.3447876 C45.41829323 50.81173083 45.92100683 52.27881045 46.4233036 53.74603271 C49.50443089 62.8062296 49.50443089 62.8062296 52.83276367 71.77734375 C54 75 54 75 54 78 C54.66 78 55.32 78 56 78 C56.26482178 76.71351562 56.52964355 75.42703125 56.80249023 74.1015625 C57.92455052 69.06478858 59.47563279 64.24799566 61.16015625 59.375 C61.46633881 58.47747009 61.77252136 57.57994019 62.08798218 56.6552124 C63.07451634 53.76841077 64.06821936 50.88414175 65.0625 48 C65.74181287 46.01862154 66.42093001 44.03717597 67.09985352 42.05566406 C71.93002651 27.98554702 76.89453589 13.97284914 82 0 C90.91 0 99.82 0 109 0 C109 34.98 109 69.96 109 106 C102.4 106 95.8 106 89 106 C89 82.9 89 59.8 89 36 C88.34 36 87.68 36 87 36 C86.83718536 36.63775864 86.67437073 37.27551727 86.50662231 37.93260193 C84.4929587 45.58588628 82.00604625 53.0147761 79.3671875 60.47265625 C78.92988312 61.71752304 78.49257874 62.96238983 78.04202271 64.24497986 C77.12491899 66.85515026 76.20533991 69.46442902 75.28369141 72.07299805 C74.10210026 75.41741829 72.92511259 78.76343539 71.74972343 82.11003971 C70.62387033 85.31483009 69.49555518 88.51875028 68.3671875 91.72265625 C67.94428436 92.9246315 67.52138123 94.12660675 67.08566284 95.36500549 C66.69500641 96.47053268 66.30434998 97.57605988 65.90185547 98.71508789 C65.55782684 99.69006729 65.21379822 100.66504669 64.85934448 101.66957092 C64 104 64 104 63 106 C57.06 106 51.12 106 45 106 C44.37955811 104.19402344 43.75911621 102.38804687 43.11987305 100.52734375 C41.06125665 94.53599855 39.00160394 88.54501039 36.94125652 82.55426025 C35.69307822 78.92488445 34.4453061 75.2953701 33.19848633 71.66552734 C31.99345354 68.15738819 30.78732234 64.64962841 29.58045387 61.14212036 C29.12201246 59.80914545 28.66395566 58.4760382 28.20630455 57.14279175 C26.815401 53.09123767 25.41258516 49.04404258 24 45 C23.70316315 44.13600586 23.40632629 43.27201172 23.10049438 42.38183594 C21.96476017 38.46422298 21.96476017 38.46422298 19 36 C19 59.1 19 82.2 19 106 C12.73 106 6.46 106 0 106 C0 71.02 0 36.04 0 0 Z " fill="#024BAD" transform="translate(481,31)"/>
<path d="M0 0 C60.95801527 0 60.95801527 0 69.6015625 8.28515625 C76.03788006 16.1777356 76.92881592 25.12077613 76 35 C73.49931589 43.19189623 69.11860977 47.70308301 61.75 51.8125 C59 53 59 53 57 53 C57 53.99 57 54.98 57 56 C57.76441406 56.25523438 58.52882813 56.51046875 59.31640625 56.7734375 C65.96803332 59.81362804 68.51213525 67.77268822 70.9375 74.25 C71.99160005 77.15557292 73.00076596 80.07515254 74 83 C74.31179199 83.9065332 74.62358398 84.81306641 74.94482422 85.74707031 C76.54436024 90.4153458 78.12670402 95.08946018 79.6796875 99.7734375 C79.93476074 100.54091309 80.18983398 101.30838867 80.45263672 102.09912109 C81 104 81 104 81 106 C73.74 106 66.48 106 59 106 C58.19175781 103.47085938 57.38351562 100.94171875 56.55078125 98.3359375 C55.75305577 95.87244555 54.95061197 93.41053785 54.14770508 90.94873047 C53.59490608 89.24524991 53.04697765 87.5401804 52.50415039 85.83349609 C51.72015655 83.3715686 50.91845578 80.91600756 50.11328125 78.4609375 C49.87660233 77.70444916 49.6399234 76.94796082 49.39607239 76.16854858 C47.72715355 71.15706247 45.77307529 67.74099316 42 64 C35.17827385 62.29456846 28.01954032 62.41291414 21 62 C21 76.52 21 91.04 21 106 C14.07 106 7.14 106 0 106 C0 71.02 0 36.04 0 0 Z " fill="#024BAD" transform="translate(254,31)"/>
<path d="M0 0 C4.54761216 3.38633108 7.88237854 7.80989594 11.00390625 12.4921875 C11.02734375 14.4140625 11.02734375 14.4140625 10.00390625 16.4921875 C7.88838942 18.0890239 5.90237006 19.41926675 3.62890625 20.7421875 C3.03851562 21.10570313 2.448125 21.46921875 1.83984375 21.84375 C-0.9813662 23.53393434 -2.65238431 24.4921875 -5.99609375 24.4921875 C-7.42578125 22.84765625 -7.42578125 22.84765625 -8.87109375 20.6796875 C-12.67158619 15.3981208 -16.25896237 13.26402842 -22.69921875 11.84765625 C-31.05686605 10.55421083 -38.6428564 11.03264321 -45.99609375 15.4921875 C-53.01937502 21.47057382 -55.82118538 28.53608772 -56.99609375 37.4921875 C-57.78294675 51.62516112 -57.75504432 64.25608557 -49.984375 76.51953125 C-45.14430922 81.32156115 -39.64499312 83.00626211 -32.9296875 83.08789062 C-32.12660156 83.07693359 -31.32351563 83.06597656 -30.49609375 83.0546875 C-29.69300781 83.07853516 -28.88992188 83.10238281 -28.0625 83.12695312 C-21.91200413 83.11200054 -17.75114722 81.39675536 -12.99609375 77.4921875 C-8.7949467 72.07135259 -9.33241788 65.0841404 -8.99609375 58.4921875 C-17.24609375 58.4921875 -25.49609375 58.4921875 -33.99609375 58.4921875 C-33.99609375 52.8821875 -33.99609375 47.2721875 -33.99609375 41.4921875 C-18.81609375 41.4921875 -3.63609375 41.4921875 12.00390625 41.4921875 C12.00390625 60.9621875 12.00390625 80.4321875 12.00390625 100.4921875 C5.40390625 100.4921875 -1.19609375 100.4921875 -7.99609375 100.4921875 C-7.99609375 95.8721875 -7.99609375 91.2521875 -7.99609375 86.4921875 C-8.65609375 86.4921875 -9.31609375 86.4921875 -9.99609375 86.4921875 C-10.23972656 87.23082031 -10.48335937 87.96945313 -10.734375 88.73046875 C-12.15087383 91.83097858 -13.6474717 93.42293173 -16.18359375 95.6796875 C-17.28767578 96.69095703 -17.28767578 96.69095703 -18.4140625 97.72265625 C-26.66637305 103.37817316 -38.4157065 102.2929424 -47.99609375 101.4921875 C-51.80363058 100.71863683 -54.71427638 99.54944615 -57.99609375 97.4921875 C-58.76953125 97.0178125 -59.54296875 96.5434375 -60.33984375 96.0546875 C-70.70477952 88.86833204 -76.10776657 77.35113956 -78.6796875 65.28515625 C-81.76734465 46.65274244 -81.40281135 26.4320283 -69.99609375 10.4921875 C-53.23600204 -10.40469635 -22.47886897 -13.3300107 0 0 Z " fill="#034CAE" transform="translate(740.99609375,36.5078125)"/>
<path d="M0 0 C0.73541016 0.00491455 1.47082031 0.0098291 2.22851562 0.01489258 C15.13078787 0.2876531 26.0221878 3.78545389 35.8125 12.3125 C35.25401174 16.49608477 32.76803698 19.33879569 30.25 22.5625 C29.82525391 23.11679687 29.40050781 23.67109375 28.96289062 24.2421875 C27.91851659 25.60339411 26.86627536 26.95855833 25.8125 28.3125 C22.34322438 26.6472477 19.20892472 24.65668483 16.0078125 22.53125 C8.95322501 18.61482421 1.68914625 18.56789677 -6.1875 19.3125 C-10.65484695 20.66603945 -13.5452794 22.3491691 -16.1875 26.3125 C-16.5171789 29.87303213 -16.42146925 32.59388016 -15.3125 36 C-10.19996152 41.56364482 -2.53346038 42.53264431 4.625 43.75 C15.86410099 45.67326154 28.16314233 48.86497585 35.37109375 58.3671875 C40.78136447 66.73548159 40.61647877 75.6165599 39.8125 85.3125 C38.16648423 92.93120157 34.12246461 99.35529801 27.671875 103.78125 C18.85790254 108.93772368 11.20029732 109.67597879 1.125 109.6875 C0.01705078 109.71199219 -1.09089844 109.73648438 -2.23242188 109.76171875 C-17.28950265 109.81451973 -28.23754687 104.15945657 -39.0703125 94.12109375 C-40.1875 92.3125 -40.1875 92.3125 -40.15234375 89.9609375 C-38.89778243 86.51724285 -37.00271046 84.27957702 -34.625 81.5 C-33.79871094 80.52417969 -32.97242187 79.54835938 -32.12109375 78.54296875 C-31.48300781 77.80691406 -30.84492187 77.07085937 -30.1875 76.3125 C-26.3984375 77.0390625 -26.3984375 77.0390625 -24.5 79.5 C-19.74512047 85.28296159 -12.75749669 89.69598417 -5.21337891 90.53100586 C-3.03410172 90.65174213 -0.8699823 90.68366435 1.3125 90.6875 C2.04597656 90.71199219 2.77945313 90.73648438 3.53515625 90.76171875 C8.73162587 90.78960678 11.74126493 89.80738552 15.8125 86.3125 C18.53846627 82.32231749 18.581845 77.97874469 17.8125 73.3125 C13.15102856 66.07918225 3.48540935 64.63493733 -4.42333984 62.91723633 C-16.28869255 60.33180518 -27.20192093 56.97469963 -34.1875 46.3125 C-38.60784489 39.28446964 -38.00568066 30.27983208 -37.1875 22.3125 C-35.03778543 14.3055921 -30.09954292 9.58626747 -23.1875 5.3125 C-15.73615119 1.52146289 -8.28047436 -0.06643636 0 0 Z " fill="#034CAE" transform="translate(145.1875,28.6875)"/>
<path d="M0 0 C6.93 0 13.86 0 21 0 C21 34.98 21 69.96 21 106 C14.07 106 7.14 106 0 106 C0 71.02 0 36.04 0 0 Z " fill="#004AAD" transform="translate(618,31)"/>
<path d="M0 0 C6.93 0 13.86 0 21 0 C21 34.98 21 69.96 21 106 C14.07 106 7.14 106 0 106 C0 71.02 0 36.04 0 0 Z " fill="#034CAE" transform="translate(205,31)"/>
<path d="M0 0 C3.63 0 7.26 0 11 0 C11.44653931 1.26444946 11.44653931 1.26444946 11.90209961 2.55444336 C13.00496723 5.67309715 14.11037196 8.79082681 15.2175293 11.90795898 C15.69674565 13.25883235 16.17493931 14.61006895 16.65209961 15.96166992 C17.33701135 17.90118634 18.02555629 19.83937881 18.71484375 21.77734375 C19.33540649 23.52905884 19.33540649 23.52905884 19.96850586 25.31616211 C20.74570905 27.88116281 20.74570905 27.88116281 22 29 C25.3 19.43 28.6 9.86 32 0 C35.63 0 39.26 0 43 0 C43 13.86 43 27.72 43 42 C40.36 42 37.72 42 35 42 C34.505 29.625 34.505 29.625 34 17 C31.03 25.25 28.06 33.5 25 42 C22.69 42 20.38 42 18 42 C17.06034833 39.52163071 16.1232481 37.04234308 15.1875 34.5625 C14.92646484 33.87478516 14.66542969 33.18707031 14.39648438 32.47851562 C12.46419756 27.34960618 10.73629176 22.20887528 9 17 C8.67 25.25 8.34 33.5 8 42 C5.36 42 2.72 42 0 42 C0 28.14 0 14.28 0 0 Z " fill="#0850AF" transform="translate(102,184)"/>
<path d="M0 0 C3.71194997 1.64975554 5.85325399 3.56520639 8 7 C9.87235915 12.61707744 9.95422728 19.35932896 7.8125 24.9375 C5.73956109 28.44005195 4.62876342 30.11001905 1 32 C-5.25528272 32.81792701 -8.84513342 32.86614993 -14 29 C-14 34.28 -14 39.56 -14 45 C-16.31 45 -18.62 45 -21 45 C-21 30.48 -21 15.96 -21 1 C-18.69 1 -16.38 1 -14 1 C-14 1.99 -14 2.98 -14 4 C-13.175 3.34 -12.35 2.68 -11.5 2 C-7.54118525 -0.62985094 -4.68553223 -0.52061469 0 0 Z " fill="#054EAE" transform="translate(273,194)"/>
<path d="M0 0 C5.4759375 -0.0928125 5.4759375 -0.0928125 11.0625 -0.1875 C12.76805054 -0.22846802 12.76805054 -0.22846802 14.50805664 -0.27026367 C21.72174694 -0.32924154 26.65531539 0.34140454 32.4375 4.9375 C35.42369806 10.7904482 34.8165377 17.41429728 32.875 23.5625 C30.40167438 26.77782331 28.85262663 27.57975205 25 29 C20.69967553 29.36151202 16.43647407 29.28166246 12.125 29.1875 C8.12375 29.125625 4.1225 29.06375 0 29 C0 19.43 0 9.86 0 0 Z " fill="#FAFBFD" transform="translate(275,47)"/>
<path d="M0 0 C2.64171244 1.55165846 3.2892884 2.26994539 4.8125 5.0625 C5.06 6.17625 5.06 6.17625 5.3125 7.3125 C0.5625 10.3125 0.5625 10.3125 -1.6875 10.3125 C-2.1825 9.6525 -2.6775 8.9925 -3.1875 8.3125 C-6.58141878 5.59736498 -9.09275501 5.75143465 -13.33984375 5.9140625 C-15.88895573 6.1666923 -15.88895573 6.1666923 -18.25 8.1875 C-21.96717528 13.68245477 -21.16891541 19.87903949 -20.6875 26.3125 C-19.92975557 29.68154831 -19.54386247 30.05398084 -16.6875 32.3125 C-12.93959771 32.94914514 -9.4205335 33.07688305 -5.6875 32.3125 C-3.7424 29.39485 -3.23473683 27.68712715 -2.6875 24.3125 C-5.9875 24.3125 -9.2875 24.3125 -12.6875 24.3125 C-12.6875 22.0025 -12.6875 19.6925 -12.6875 17.3125 C-6.7475 17.3125 -0.8075 17.3125 5.3125 17.3125 C5.3125 24.9025 5.3125 32.4925 5.3125 40.3125 C3.0025 40.3125 0.6925 40.3125 -1.6875 40.3125 C-2.1825 37.8375 -2.1825 37.8375 -2.6875 35.3125 C-3.265 36.1375 -3.8425 36.9625 -4.4375 37.8125 C-7.24461459 40.63570121 -9.72465553 40.76356159 -13.625 40.875 C-18.75318996 40.62960195 -21.9417884 40.0582116 -25.6875 36.3125 C-30.2856511 28.91676829 -31.62464199 21.97843097 -30.6875 13.3125 C-28.76002913 7.43411373 -26.09642046 2.58632028 -20.6875 -0.6875 C-14.24134247 -2.83621918 -6.23354357 -2.84176251 0 0 Z " fill="#0850AF" transform="translate(564.6875,185.6875)"/>
<path d="M0 0 C14.85 0 29.7 0 45 0 C45 5.94 45 11.88 45 18 C30.15 18 15.3 18 0 18 C0 12.06 0 6.12 0 0 Z " fill="#0950B0" transform="translate(381,76)"/>
<path d="M0 0 C4.56108735 2.24053414 5.70524839 3.41049679 8 8 C8 11.3 8 14.6 8 18 C1.07 18 -5.86 18 -13 18 C-10.83333333 23.83333333 -10.83333333 23.83333333 -8 25 C-3.632838 25.43173199 -3.632838 25.43173199 0.0625 23.375 C0.701875 22.92125 1.34125 22.4675 2 22 C4.6875 22.6875 4.6875 22.6875 7 24 C7.33 24.66 7.66 25.32 8 26 C3.2585664 30.86620817 1.47257153 32.15779065 -5.3125 32.25 C-6.44300781 32.27578125 -7.57351563 32.3015625 -8.73828125 32.328125 C-12.35540505 31.96424668 -14.13333082 31.1977797 -17 29 C-20.75673569 24.33906432 -21.58962504 19.18118425 -21.3203125 13.328125 C-20.66748001 8.58314738 -18.94867203 5.85611866 -15.4375 2.6875 C-10.48352743 -0.74217332 -5.91289145 -0.60880265 0 0 Z " fill="#064EAF" transform="translate(635,194)"/>
<path d="M0 0 C3.40569104 1.84897412 6.21534825 4.03386113 7.6796875 7.703125 C8.15398214 11.10416465 8 14.56604804 8 18 C1.07 18 -5.86 18 -13 18 C-11.34922098 21.75170424 -11.34922098 21.75170424 -9 25 C-5.58375742 25.33354403 -5.58375742 25.33354403 -2 25 C-0.33289654 23.50014391 -0.33289654 23.50014391 1 22 C3.32488881 22.2818047 4.90892835 22.95446418 7 24 C6.68133521 26.97420474 6.02337636 27.97704867 3.8515625 30.109375 C-1.07785605 33.37764702 -6.29612137 32.69594494 -12 32 C-16.19252073 30.192879 -17.51193872 28.79716676 -19.875 24.9375 C-21.6187952 20.09246423 -21.68074864 15.06354605 -21 10 C-16.78519448 1.08406524 -9.41334201 -1.82545272 0 0 Z " fill="#064EAE" transform="translate(728,194)"/>
<path d="M0 0 C3.40569104 1.84897412 6.21534825 4.03386113 7.6796875 7.703125 C8.15398214 11.10416465 8 14.56604804 8 18 C1.07 18 -5.86 18 -13 18 C-11.34922098 21.75170424 -11.34922098 21.75170424 -9 25 C-5.58375742 25.33354403 -5.58375742 25.33354403 -2 25 C-0.33289654 23.50014391 -0.33289654 23.50014391 1 22 C3.32488881 22.2818047 4.90892835 22.95446418 7 24 C6.68133521 26.97420474 6.02337636 27.97704867 3.8515625 30.109375 C-1.07785605 33.37764702 -6.29612137 32.69594494 -12 32 C-16.19252073 30.192879 -17.51193872 28.79716676 -19.875 24.9375 C-21.6187952 20.09246423 -21.68074864 15.06354605 -21 10 C-16.78519448 1.08406524 -9.41334201 -1.82545272 0 0 Z " fill="#064EAE" transform="translate(327,194)"/>
<path d="M0 0 C0.82242187 -0.04898438 1.64484375 -0.09796875 2.4921875 -0.1484375 C6.32882107 0.61433535 8.91517448 2.19320696 11.125 5.375 C11.98132198 8.81645882 12.00998976 12.15362364 12 15.6875 C12.020625 16.61884766 12.04125 17.55019531 12.0625 18.50976562 C12.10946018 20.7990742 12.12945527 23.08530978 12.125 25.375 C13.115 25.705 14.105 26.035 15.125 26.375 C15.125 28.355 15.125 30.335 15.125 32.375 C12.485 32.375 9.845 32.375 7.125 32.375 C6.465 31.055 5.805 29.735 5.125 28.375 C4.465 28.375 3.805 28.375 3.125 28.375 C2.795 29.365 2.465 30.355 2.125 31.375 C-1.56376027 33.21938013 -5.84830313 32.86288734 -9.875 32.375 C-12.45137471 30.48984777 -13.47167428 29.18165143 -14.875 26.375 C-15.27604136 22.76562773 -15.22379149 20.93272526 -13.27734375 17.8203125 C-10.36003453 14.85082377 -8.11772081 14.14053462 -4.125 13.0625 C-2.95453125 12.73636719 -1.7840625 12.41023437 -0.578125 12.07421875 C0.31390625 11.84347656 1.2059375 11.61273438 2.125 11.375 C2.125 10.055 2.125 8.735 2.125 7.375 C-1.47877376 7.12357392 -3.37806771 7.06737525 -6.5 9 C-7.28375 9.45375 -8.0675 9.9075 -8.875 10.375 C-11.125 9.75 -11.125 9.75 -12.875 8.375 C-13.205 7.385 -13.535 6.395 -13.875 5.375 C-9.22369408 1.36970879 -6.06032883 0.24543388 0 0 Z " fill="#074FAF" transform="translate(482.875,193.625)"/>
<path d="M0 0 C2.64 0 5.28 0 8 0 C8.02505615 0.72179443 8.0501123 1.44358887 8.07592773 2.18725586 C8.19151302 5.437535 8.31440774 8.68749688 8.4375 11.9375 C8.47681641 13.07380859 8.51613281 14.21011719 8.55664062 15.38085938 C8.61948242 17.00024414 8.61948242 17.00024414 8.68359375 18.65234375 C8.72025146 19.65257568 8.75690918 20.65280762 8.79467773 21.68334961 C8.74671841 23.96069188 8.74671841 23.96069188 10 25 C12.91538029 25.50042146 12.91538029 25.50042146 16 25 C19.91761258 20.54522068 19.54838514 15.31171502 19.6875 9.6875 C19.72166016 8.75615234 19.75582031 7.82480469 19.79101562 6.86523438 C19.87315941 4.57694328 19.94241662 2.28901896 20 0 C22.64 0 25.28 0 28 0 C28 10.56 28 21.12 28 32 C25.36 32 22.72 32 20 32 C19.67 31.01 19.34 30.02 19 29 C18.44183594 29.4846875 17.88367188 29.969375 17.30859375 30.46875 C14.65748346 32.22718525 13.21346443 32.46115914 10.0625 32.5 C9.22847656 32.5309375 8.39445313 32.561875 7.53515625 32.59375 C3.48288725 31.64468238 2.31954897 30.50811218 0 27 C-0.61665788 22.38177285 -0.46881046 17.83593273 -0.3125 13.1875 C-0.28994141 11.92228516 -0.26738281 10.65707031 -0.24414062 9.35351562 C-0.18529078 6.23447381 -0.1031137 3.11784098 0 0 Z " fill="#0A51B0" transform="translate(579,194)"/>
<path d="M0 0 C3.58552881 1.63687185 4.79315055 2.68972583 7 6 C7.22705078 8.72729492 7.22705078 8.72729492 7.1953125 11.98046875 C7.18886719 13.14384766 7.18242187 14.30722656 7.17578125 15.50585938 C7.15902344 16.72080078 7.14226562 17.93574219 7.125 19.1875 C7.11597656 20.41404297 7.10695313 21.64058594 7.09765625 22.90429688 C7.07406017 25.93639295 7.04113841 28.96809938 7 32 C4.36 32 1.72 32 -1 32 C-1.02505615 31.30849854 -1.0501123 30.61699707 -1.07592773 29.90454102 C-1.19152161 26.79032134 -1.31441242 23.67643211 -1.4375 20.5625 C-1.47681641 19.47388672 -1.51613281 18.38527344 -1.55664062 17.26367188 C-1.59853516 16.22919922 -1.64042969 15.19472656 -1.68359375 14.12890625 C-1.72025146 13.17056885 -1.75690918 12.21223145 -1.79467773 11.22485352 C-1.75834424 9.02861075 -1.75834424 9.02861075 -3 8 C-6.45821402 7.74996036 -6.45821402 7.74996036 -10 8 C-12.52128356 10.52128356 -12.29353069 11.51239013 -12.4140625 15.0078125 C-12.47207031 16.48701172 -12.47207031 16.48701172 -12.53125 17.99609375 C-12.57765625 19.54490234 -12.57765625 19.54490234 -12.625 21.125 C-12.68300781 22.68541016 -12.68300781 22.68541016 -12.7421875 24.27734375 C-12.83664766 26.85138311 -12.92221214 29.42541155 -13 32 C-15.64 32 -18.28 32 -21 32 C-21 21.77 -21 11.54 -21 1 C-18.69 1 -16.38 1 -14 1 C-14 2.32 -14 3.64 -14 5 C-13.34 5 -12.68 5 -12 5 C-11.71125 4.360625 -11.4225 3.72125 -11.125 3.0625 C-8.80297011 -1.19455479 -4.32721375 -0.47341878 0 0 Z " fill="#074FAF" transform="translate(396,194)"/>
<path d="M0 0 C2.31 0 4.62 0 7 0 C7.01981934 0.65597168 7.03963867 1.31194336 7.06005859 1.98779297 C7.15512507 4.95061069 7.26487752 7.91270532 7.375 10.875 C7.4059375 11.90753906 7.436875 12.94007813 7.46875 14.00390625 C7.50742188 14.99003906 7.54609375 15.97617188 7.5859375 16.9921875 C7.6173584 17.90339355 7.6487793 18.81459961 7.68115234 19.75341797 C7.79882511 22.19931186 7.79882511 22.19931186 10 24 C13.53462587 23.99510849 13.53462587 23.99510849 17 23 C18.88670094 20.1996817 19.27906893 17.78296647 19.4140625 14.453125 C19.45273438 13.60878906 19.49140625 12.76445312 19.53125 11.89453125 C19.5621875 11.02183594 19.593125 10.14914063 19.625 9.25 C19.66367188 8.36183594 19.70234375 7.47367188 19.7421875 6.55859375 C19.83620873 4.3726002 19.92186143 2.18660938 20 0 C22.31 0 24.62 0 27 0 C27 10.23 27 20.46 27 31 C24.69 31 22.38 31 20 31 C19.67 29.68 19.34 28.36 19 27 C18.54625 27.66 18.0925 28.32 17.625 29 C14.17944516 31.62518464 11.75859066 31.51793502 7.53515625 31.62890625 C3.52583474 30.63429799 2.31701787 29.46731043 0 26 C-0.61417161 21.54735124 -0.4692734 17.17121913 -0.3125 12.6875 C-0.28994141 11.46998047 -0.26738281 10.25246094 -0.24414062 8.99804688 C-0.1853053 5.99744518 -0.1031414 2.99935203 0 0 Z " fill="#014BAD" transform="translate(155,195)"/>
<path d="M0 0 C2.42171413 1.45403126 3.35080576 2.64400822 5 5 C3.35 6.32 1.7 7.64 0 9 C-0.53625 8.67 -1.0725 8.34 -1.625 8 C-4.5391061 6.77300796 -6.86867708 6.85766714 -10 7 C-10 8.32 -10 9.64 -10 11 C-9.26394531 11.15855469 -8.52789063 11.31710938 -7.76953125 11.48046875 C2.69268327 13.98200221 2.69268327 13.98200221 6 19 C6.69151325 23.30274909 6.51557405 25.20945312 4.125 28.875 C0.5885627 32.4114373 -1.89282241 32.2146216 -6.8125 32.3125 C-8.03582031 32.34988281 -9.25914062 32.38726562 -10.51953125 32.42578125 C-14.53807984 31.9341743 -16.12836848 30.77317558 -19 28 C-18.75 26.125 -18.75 26.125 -18 24 C-15.9375 22.75 -15.9375 22.75 -14 22 C-13.67 22.495 -13.34 22.99 -13 23.5 C-9.82427253 25.88179561 -6.89753934 25.19168226 -3 25 C-3 23.68 -3 22.36 -3 21 C-3.66386719 20.82984375 -4.32773437 20.6596875 -5.01171875 20.484375 C-15.05738107 17.72731731 -15.05738107 17.72731731 -18 14 C-18.76966646 10.81990525 -18.76408969 8.18087707 -18 5 C-13.47855184 -1.15419333 -7.23248111 -1.31499657 0 0 Z " fill="#0950AF" transform="translate(696,194)"/>
<path d="M0 0 C2.42171413 1.45403126 3.35080576 2.64400822 5 5 C3.35 6.32 1.7 7.64 0 9 C-0.53625 8.67 -1.0725 8.34 -1.625 8 C-4.5391061 6.77300796 -6.86867708 6.85766714 -10 7 C-10 8.32 -10 9.64 -10 11 C-9.26394531 11.15855469 -8.52789063 11.31710938 -7.76953125 11.48046875 C2.69268327 13.98200221 2.69268327 13.98200221 6 19 C6.69151325 23.30274909 6.51557405 25.20945312 4.125 28.875 C0.5885627 32.4114373 -1.89282241 32.2146216 -6.8125 32.3125 C-8.03582031 32.34988281 -9.25914062 32.38726562 -10.51953125 32.42578125 C-14.53807984 31.9341743 -16.12836848 30.77317558 -19 28 C-18.75 26.125 -18.75 26.125 -18 24 C-15.9375 22.75 -15.9375 22.75 -14 22 C-13.67 22.495 -13.34 22.99 -13 23.5 C-9.82427253 25.88179561 -6.89753934 25.19168226 -3 25 C-3 23.68 -3 22.36 -3 21 C-3.66386719 20.82984375 -4.32773437 20.6596875 -5.01171875 20.484375 C-15.05738107 17.72731731 -15.05738107 17.72731731 -18 14 C-18.76966646 10.81990525 -18.76408969 8.18087707 -18 5 C-13.47855184 -1.15419333 -7.23248111 -1.31499657 0 0 Z " fill="#0950AF" transform="translate(667,194)"/>
<path d="M0 0 C0.804375 0.495 1.60875 0.99 2.4375 1.5 C1.7775 3.15 1.1175 4.8 0.4375 6.5 C-3.5625 6.5 -3.5625 6.5 -5.5625 5.5 C-7.56210012 5.460008 -9.56297242 5.45653201 -11.5625 5.5 C-11.5625 6.82 -11.5625 8.14 -11.5625 9.5 C-10.73105469 9.75394531 -9.89960937 10.00789062 -9.04296875 10.26953125 C-7.95628906 10.61371094 -6.86960937 10.95789063 -5.75 11.3125 C-4.13158203 11.81716797 -4.13158203 11.81716797 -2.48046875 12.33203125 C0.30742632 13.4479357 1.74051803 14.05913552 3.4375 16.5 C4.06012378 19.54580823 3.95222236 22.4393391 3.4375 25.5 C1.56129387 28.00160818 0.19858697 29.11945652 -2.5625 30.5 C-14.91584612 31.5408206 -14.91584612 31.5408206 -19.375 28.5 C-20.096875 27.84 -20.81875 27.18 -21.5625 26.5 C-20.19266497 23.33884224 -19.5734362 22.5072908 -16.5625 20.5 C-16.046875 20.995 -15.53125 21.49 -15 22 C-11.75569983 23.99649241 -9.30032666 23.71564385 -5.5625 23.5 C-5.5625 22.18 -5.5625 20.86 -5.5625 19.5 C-6.23796875 19.32984375 -6.9134375 19.1596875 -7.609375 18.984375 C-16.55455979 16.55418029 -16.55455979 16.55418029 -19.5625 12.5 C-21.00680855 9.61138291 -20.93938506 7.70352299 -20.5625 4.5 C-15.0175889 -2.24381079 -7.91694357 -3.33344993 0 0 Z " fill="#074FAF" transform="translate(761.5625,195.5)"/>
<path d="M0 0 C0 2.31 0 4.62 0 7 C2.97 7 5.94 7 9 7 C9 9.31 9 11.62 9 14 C6.03 14 3.06 14 0 14 C0.33 19.61 0.66 25.22 1 31 C3.31 31.33 5.62 31.66 8 32 C10 35 10 35 10 38 C6.07232406 39.96383797 1.28226501 39.47510337 -3 39 C-5.65563802 37.1031157 -6.57242527 35.85514945 -8 33 C-8.08342159 31.55151418 -8.10732861 30.09929131 -8.09765625 28.6484375 C-8.09443359 27.79765625 -8.09121094 26.946875 -8.08789062 26.0703125 C-8.07951172 25.18085938 -8.07113281 24.29140625 -8.0625 23.375 C-8.05798828 22.4778125 -8.05347656 21.580625 -8.04882812 20.65625 C-8.03702591 18.43743352 -8.02056155 16.21874982 -8 14 C-9.65 14 -11.3 14 -13 14 C-13 11.69 -13 9.38 -13 7 C-11.35 7 -9.7 7 -8 7 C-8 5.02 -8 3.04 -8 1 C-5.10765685 0.17361624 -3.11257569 0 0 0 Z " fill="#0B51B0" transform="translate(438,187)"/>
<path d="M0 0 C0 2.31 0 4.62 0 7 C2.97 7 5.94 7 9 7 C9 9.31 9 11.62 9 14 C6.03 14 3.06 14 0 14 C0.33 19.61 0.66 25.22 1 31 C3.31 31.33 5.62 31.66 8 32 C10 35 10 35 10 38 C6.07232406 39.96383797 1.28226501 39.47510337 -3 39 C-5.65563802 37.1031157 -6.57242527 35.85514945 -8 33 C-8.08342159 31.55151418 -8.10732861 30.09929131 -8.09765625 28.6484375 C-8.09443359 27.79765625 -8.09121094 26.946875 -8.08789062 26.0703125 C-8.07951172 25.18085938 -8.07113281 24.29140625 -8.0625 23.375 C-8.05798828 22.4778125 -8.05347656 21.580625 -8.04882812 20.65625 C-8.03702591 18.43743352 -8.02056155 16.21874982 -8 14 C-9.65 14 -11.3 14 -13 14 C-13 11.69 -13 9.38 -13 7 C-11.35 7 -9.7 7 -8 7 C-8 5.02 -8 3.04 -8 1 C-5.10765685 0.17361624 -3.11257569 0 0 0 Z " fill="#0B51B0" transform="translate(219,187)"/>
<path d="M0 0 C2.97 0 5.94 0 9 0 C9 13.86 9 27.72 9 42 C6.03 42 3.06 42 0 42 C0 28.14 0 14.28 0 0 Z " fill="#1458B3" transform="translate(356,184)"/>
<path d="M0 0 C2.64 0 5.28 0 8 0 C8.33 12.21 8.66 24.42 9 37 C10.32 37.33 11.64 37.66 13 38 C13 39.98 13 41.96 13 44 C11.56344146 44.08131463 10.1255517 44.13933559 8.6875 44.1875 C7.48673828 44.23970703 7.48673828 44.23970703 6.26171875 44.29296875 C4 44 4 44 2.26953125 42.67578125 C-0.74452727 38.697224 -0.12763814 34.1330452 -0.09765625 29.39453125 C-0.0962413 28.55532639 -0.09482635 27.71612152 -0.09336853 26.85148621 C-0.08777215 24.17178784 -0.07522035 21.4921731 -0.0625 18.8125 C-0.05748453 16.99544392 -0.05292171 15.17838652 -0.04882812 13.36132812 C-0.03780391 8.90751987 -0.02054178 4.45377411 0 0 Z " fill="#0A51B0" transform="translate(503,182)"/>
<path d="M0 0 C2.64 0 5.28 0 8 0 C8.33 12.21 8.66 24.42 9 37 C10.32 37.33 11.64 37.66 13 38 C13 39.98 13 41.96 13 44 C11.56344146 44.08131463 10.1255517 44.13933559 8.6875 44.1875 C7.48673828 44.23970703 7.48673828 44.23970703 6.26171875 44.29296875 C4 44 4 44 2.26953125 42.67578125 C-0.74452727 38.697224 -0.12763814 34.1330452 -0.09765625 29.39453125 C-0.0962413 28.55532639 -0.09482635 27.71612152 -0.09336853 26.85148621 C-0.08777215 24.17178784 -0.07522035 21.4921731 -0.0625 18.8125 C-0.05748453 16.99544392 -0.05292171 15.17838652 -0.04882812 13.36132812 C-0.03780391 8.90751987 -0.02054178 4.45377411 0 0 Z " fill="#044DAE" transform="translate(289,182)"/>
<path d="M0 0 C2.64 0 5.28 0 8 0 C8 12.54 8 25.08 8 38 C9.32 38 10.64 38 12 38 C12 39.98 12 41.96 12 44 C10.56416999 44.10836453 9.1259798 44.18576167 7.6875 44.25 C6.88699219 44.29640625 6.08648437 44.3428125 5.26171875 44.390625 C3 44 3 44 1.37695312 42.546875 C-0.69638467 38.71193531 -0.37073 35.14977274 -0.29296875 30.859375 C-0.28872391 29.97719299 -0.28447906 29.09501099 -0.28010559 28.18609619 C-0.26333838 25.37375117 -0.22568998 22.56212774 -0.1875 19.75 C-0.17245062 17.8411562 -0.15876266 15.93230114 -0.14648438 14.0234375 C-0.11344127 9.34868111 -0.06167255 4.67446282 0 0 Z " fill="#0C52B1" transform="translate(192,182)"/>
<path d="M0 0 C2.64 0 5.28 0 8 0 C8 10.56 8 21.12 8 32 C5.36 32 2.72 32 0 32 C0 21.44 0 10.88 0 0 Z " fill="#0C52B0" transform="translate(453,194)"/>
<path d="M0 0 C2.64 0 5.28 0 8 0 C8 10.56 8 21.12 8 32 C5.36 32 2.72 32 0 32 C0 21.44 0 10.88 0 0 Z " fill="#0B52B0" transform="translate(412,194)"/>
<path d="M0 0 C2.64 0 5.28 0 8 0 C8 10.56 8 21.12 8 32 C5.36 32 2.72 32 0 32 C0 21.44 0 10.88 0 0 Z " fill="#0C52B0" transform="translate(234,194)"/>
<path d="M0 0 C2.4375 1.375 2.4375 1.375 4 4 C4.91605707 9.12473435 4.79464408 12.7719137 1.9375 17.1875 C-1 19 -1 19 -4.6875 19 C-8 18 -8 18 -10 15 C-10.30078125 12.1875 -10.30078125 12.1875 -10.3125 9 C-10.32925781 7.948125 -10.34601563 6.89625 -10.36328125 5.8125 C-10 3 -10 3 -8.6953125 1.15234375 C-5.80276983 -0.81378548 -3.37225179 -0.41413619 0 0 Z " fill="#F5F8FC" transform="translate(270,201)"/>
<path d="M0 0 C0.34718988 3.73229119 0.23503152 5.59957594 -1.6875 8.875 C-4 11 -4 11 -6.625 11.4375 C-9 11 -9 11 -11 9 C-11.125 6.375 -11.125 6.375 -11 4 C-9.5437455 3.32880451 -8.08492133 2.66318193 -6.625 2 C-5.81289063 1.62875 -5.00078125 1.2575 -4.1640625 0.875 C-2 0 -2 0 0 0 Z " fill="#E3EBF6" transform="translate(487,210)"/>
<path d="M0 0 C3.125 0.375 3.125 0.375 6 1 C7.32841008 6.43440487 7.32841008 6.43440487 5.875 8.9375 C4 10 4 10 1.4375 9.8125 C-1 9 -1 9 -3 7 C-2.67028521 3.70285207 -2.3773161 2.3773161 0 0 Z " fill="#195CB5" transform="translate(455,181)"/>
<path d="M0 0 C2.4375 0.8125 2.4375 0.8125 4.4375 2.8125 C4.10778521 6.10964793 3.8148161 7.4351839 1.4375 9.8125 C-1.6875 9.4375 -1.6875 9.4375 -4.5625 8.8125 C-5.89091008 3.37809513 -5.89091008 3.37809513 -4.4375 0.875 C-2.5625 -0.1875 -2.5625 -0.1875 0 0 Z " fill="#195BB5" transform="translate(416.5625,181.1875)"/>
<path d="M0 0 C3.125 0.375 3.125 0.375 6 1 C7.32841008 6.43440487 7.32841008 6.43440487 5.875 8.9375 C4 10 4 10 1.4375 9.8125 C-1 9 -1 9 -3 7 C-2.67028521 3.70285207 -2.3773161 2.3773161 0 0 Z " fill="#195CB5" transform="translate(236,181)"/>
<path d="M0 0 C3.125 0.375 3.125 0.375 5.5 2.1875 C7.125 4.375 7.125 4.375 7.125 7.375 C2.835 7.375 -1.455 7.375 -5.875 7.375 C-4.51785714 0.58928571 -4.51785714 0.58928571 0 0 Z " fill="#EDF2F9" transform="translate(628.875,199.625)"/>
<path d="M0 0 C3.0625 0.3125 3.0625 0.3125 4.9375 1.5625 C6.0625 3.3125 6.0625 3.3125 6.0625 7.3125 C1.7725 7.3125 -2.5175 7.3125 -6.9375 7.3125 C-4.19083333 0.44583333 -4.19083333 0.44583333 0 0 Z " fill="#F1F5FA" transform="translate(721.9375,199.6875)"/>
<path d="M0 0 C3.0625 0.3125 3.0625 0.3125 4.9375 1.5625 C6.0625 3.3125 6.0625 3.3125 6.0625 7.3125 C1.7725 7.3125 -2.5175 7.3125 -6.9375 7.3125 C-4.19083333 0.44583333 -4.19083333 0.44583333 0 0 Z " fill="#F1F5FA" transform="translate(320.9375,199.6875)"/>
</svg>
